<svg xmlns="http://www.w3.org/2000/svg" viewBox="0 0 1280 720" role="img" aria-labelledby="title desc">
  <title id="title">Eco illustration for Lisakovsk</title>
  <desc id="desc">A small industrial city near a river with trees, steppe, recycling and clean energy cues.</desc>
  <defs>
    <linearGradient id="sky" x1="0" x2="0" y1="0" y2="1">
      <stop offset="0" stop-color="#dff2f7"/>
      <stop offset="0.58" stop-color="#f6fbf6"/>
      <stop offset="1" stop-color="#ffffff"/>
    </linearGradient>
    <linearGradient id="river" x1="0" x2="1" y1="0" y2="0">
      <stop offset="0" stop-color="#a9d8e8"/>
      <stop offset="1" stop-color="#6fb1cc"/>
    </linearGradient>
    <linearGradient id="field" x1="0" x2="1" y1="0" y2="1">
      <stop offset="0" stop-color="#d9ead5"/>
      <stop offset="1" stop-color="#9fca91"/>
    </linearGradient>
    <filter id="softShadow" x="-20%" y="-20%" width="140%" height="140%">
      <feDropShadow dx="0" dy="12" stdDeviation="16" flood-color="#126145" flood-opacity="0.16"/>
    </filter>
  </defs>
  <rect width="1280" height="720" fill="url(#sky)"/>
  <circle cx="1042" cy="122" r="52" fill="#f2b84b" opacity="0.9"/>
  <path d="M0 348 C206 292 391 324 600 286 C793 251 963 278 1280 230 L1280 720 L0 720 Z" fill="url(#field)"/>
  <path d="M0 470 C170 422 331 425 517 456 C694 486 812 551 1006 535 C1120 525 1204 486 1280 455 L1280 720 L0 720 Z" fill="url(#river)" opacity="0.9"/>
  <path d="M0 530 C202 486 400 499 572 530 C775 567 943 611 1280 540 L1280 720 L0 720 Z" fill="#5a9fba" opacity="0.28"/>
  <g opacity="0.28" fill="none" stroke="#ffffff" stroke-width="6">
    <path d="M79 532 C240 501 363 515 512 547"/>
    <path d="M726 586 C867 620 1030 613 1210 566"/>
  </g>
  <g filter="url(#softShadow)">
    <g transform="translate(160 254)">
      <rect x="0" y="78" width="132" height="162" rx="4" fill="#f7faf8"/>
      <rect x="150" y="42" width="128" height="198" rx="4" fill="#ffffff"/>
      <rect x="298" y="98" width="126" height="142" rx="4" fill="#f4f6f1"/>
      <g fill="#89b7c8">
        <rect x="20" y="103" width="22" height="18"/><rect x="58" y="103" width="22" height="18"/><rect x="96" y="103" width="22" height="18"/>
        <rect x="20" y="143" width="22" height="18"/><rect x="58" y="143" width="22" height="18"/><rect x="96" y="143" width="22" height="18"/>
        <rect x="20" y="183" width="22" height="18"/><rect x="58" y="183" width="22" height="18"/><rect x="96" y="183" width="22" height="18"/>
        <rect x="170" y="70" width="22" height="18"/><rect x="210" y="70" width="22" height="18"/><rect x="250" y="70" width="22" height="18"/>
        <rect x="170" y="112" width="22" height="18"/><rect x="210" y="112" width="22" height="18"/><rect x="250" y="112" width="22" height="18"/>
        <rect x="170" y="154" width="22" height="18"/><rect x="210" y="154" width="22" height="18"/><rect x="250" y="154" width="22" height="18"/>
        <rect x="170" y="196" width="22" height="18"/><rect x="210" y="196" width="22" height="18"/><rect x="250" y="196" width="22" height="18"/>
        <rect x="318" y="123" width="22" height="18"/><rect x="356" y="123" width="22" height="18"/><rect x="394" y="123" width="22" height="18"/>
        <rect x="318" y="164" width="22" height="18"/><rect x="356" y="164" width="22" height="18"/><rect x="394" y="164" width="22" height="18"/>
        <rect x="318" y="205" width="22" height="18"/><rect x="356" y="205" width="22" height="18"/><rect x="394" y="205" width="22" height="18"/>
      </g>
    </g>
    <g transform="translate(690 280)">
      <rect x="0" y="84" width="160" height="118" rx="4" fill="#dde3e1"/>
      <rect x="190" y="54" width="158" height="148" rx="4" fill="#cfd8d5"/>
      <rect x="24" y="38" width="36" height="46" fill="#becac5"/>
      <rect x="72" y="14" width="34" height="70" fill="#b4c0bc"/>
      <path d="M214 54 L249 12 L286 54 Z" fill="#aebbb5"/>
      <g fill="#7aaac0">
        <rect x="24" y="108" width="24" height="18"/><rect x="68" y="108" width="24" height="18"/><rect x="112" y="108" width="24" height="18"/>
        <rect x="214" y="84" width="24" height="18"/><rect x="258" y="84" width="24" height="18"/><rect x="302" y="84" width="24" height="18"/>
        <rect x="214" y="124" width="24" height="18"/><rect x="258" y="124" width="24" height="18"/><rect x="302" y="124" width="24" height="18"/>
      </g>
      <path d="M58 38 C54 0 110 4 98 -30" fill="none" stroke="#9cb0aa" stroke-width="8" stroke-linecap="round" opacity="0.45"/>
      <path d="M98 14 C94 -22 147 -18 135 -52" fill="none" stroke="#9cb0aa" stroke-width="8" stroke-linecap="round" opacity="0.32"/>
    </g>
  </g>
  <g fill="#1f8a5b">
    <circle cx="134" cy="414" r="30"/><rect x="128" y="438" width="12" height="58" fill="#5c7f4d"/>
    <circle cx="540" cy="390" r="34"/><rect x="534" y="421" width="12" height="70" fill="#5c7f4d"/>
    <circle cx="944" cy="404" r="30"/><rect x="938" y="430" width="12" height="62" fill="#5c7f4d"/>
    <circle cx="1117" cy="361" r="38"/><rect x="1111" y="397" width="12" height="78" fill="#5c7f4d"/>
  </g>
  <g transform="translate(1012 474)">
    <circle cx="54" cy="54" r="54" fill="#ffffff" opacity="0.92"/>
    <path d="M61 22 C79 27 91 42 90 61" fill="none" stroke="#1f8a5b" stroke-width="10" stroke-linecap="round"/>
    <path d="M87 58 L91 78 L72 70" fill="#1f8a5b"/>
    <path d="M45 86 C27 81 15 66 16 47" fill="none" stroke="#2f6f8f" stroke-width="10" stroke-linecap="round"/>
    <path d="M19 50 L15 30 L34 38" fill="#2f6f8f"/>
    <path d="M33 34 C46 18 70 19 83 35" fill="none" stroke="#f2b84b" stroke-width="10" stroke-linecap="round"/>
  </g>
  <g transform="translate(79 590)" fill="#ffffff" opacity="0.8">
    <rect x="0" y="0" width="210" height="10" rx="5"/>
    <rect x="239" y="0" width="98" height="10" rx="5"/>
    <rect x="362" y="0" width="155" height="10" rx="5"/>
  </g>
</svg>
